# xmcd
#
# Track frame offsets: 
#        150
#        13164
#        27116
#        39941
#        53583
#        68082
#        82967
#        96636
#        111271
#        126103
#        140417
#        156082
#        169914
#        183263
#        197183
#        207565
#        220437
#        234694
#        247598
#        260930
#        275162
#        289919
#        304568
#        319668
#
# Disc length: 4435 seconds
#
# Revision: 1
# Processed by: cddbd v1.5.2PL0 Copyright (c) Steve Scherf et al.
# Submitted via: ExactAudioCopy v0.99pb5
#
DISCID=66115118
DTITLE=Billie Holiday - The Complete Columbia Golden Years Recordings 
DTITLE=Volume 1 CD2
DYEAR=1900
DGENRE=Jazz
TTITLE0=A Fine Romance (-1)
TTITLE1=I Can't Pretend (-1)
TTITLE2=One, Two, Button Your Shoe (-1)
TTITLE3=Let's Call A Heart A Heart (-2)
TTITLE4=Easy to Love (-1)
TTITLE5=With Thee I Swing (-2)
TTITLE6=The Way You Look Tonight (-2)
TTITLE7=Who Loves You? (-1)
TTITLE8=Pennies From Heaven (-1)
TTITLE9=That's Life I Guess (-1)
TTITLE10=I Caan't Give You Anything But Love (-1)
TTITLE11=One Never Knows, Does One? (-1)
TTITLE12=I've Got My Love to Keep Me Warm (-2)
TTITLE13=If My Heart Could Only Talk (-1)
TTITLE14=Please Keep Me In Your Dreams (-2)
TTITLE15=He Ain't Got Rhythm (-1)
TTITLE16=This Year's Kisses (-2)
TTITLE17=Why Was I Born? (-1)
TTITLE18=I Must Have That Man (-1)
TTITLE19=The Way You Look Tonight (-1)
TTITLE20=Who Loves You? (-3)
TTITLE21=Pennies From Heaven (-2)
TTITLE22=That's Life I Guess (-2)
TTITLE23=I've Got My Love to Keep Me Warm (-1)
EXTD=
EXTT0=
EXTT1=
EXTT2=
EXTT3=
EXTT4=
EXTT5=
EXTT6=
EXTT7=
EXTT8=
EXTT9=
EXTT10=
EXTT11=
EXTT12=
EXTT13=
EXTT14=
EXTT15=
EXTT16=
EXTT17=
EXTT18=
EXTT19=
EXTT20=
EXTT21=
EXTT22=
EXTT23=
PLAYORDER=
